<svg width="550" height="550" viewBox="0 0 550 550" fill="none" xmlns="http://www.w3.org/2000/svg">
<circle cx="275" cy="275" r="272.5" fill="#EEE0D5" stroke="black" stroke-width="5"/>
<circle cx="275" cy="275" r="247.5" fill="#FAF5F2" stroke="black" stroke-width="5"/>
<path d="M113.346 295V276.748H116.135V295H113.346ZM107.727 277.773V275.121H121.754V277.773H107.727ZM130.586 295V286.004C130.586 285.074 130.335 284.354 129.834 283.844C129.342 283.324 128.64 283.064 127.729 283.064C127.173 283.064 126.621 283.151 126.074 283.324C125.536 283.488 125.053 283.73 124.625 284.049L122.588 282.654C123.126 282.007 123.832 281.506 124.707 281.15C125.591 280.786 126.571 280.604 127.646 280.604C129.424 280.604 130.8 281.064 131.775 281.984C132.751 282.905 133.238 284.204 133.238 285.881V295H130.586ZM127.113 295.205C125.372 295.205 124.064 294.845 123.189 294.125C122.324 293.405 121.891 292.302 121.891 290.816C121.891 289.404 122.287 288.351 123.08 287.658C123.882 286.956 125.081 286.605 126.676 286.605H130.709L130.9 288.848H126.689C125.969 288.848 125.427 289.012 125.062 289.34C124.698 289.659 124.516 290.151 124.516 290.816C124.516 291.536 124.757 292.07 125.24 292.416C125.723 292.762 126.448 292.936 127.414 292.936C128.471 292.936 129.264 292.822 129.793 292.594C130.322 292.366 130.586 292.01 130.586 291.527L130.873 293.523C130.627 293.906 130.322 294.221 129.957 294.467C129.592 294.713 129.173 294.895 128.699 295.014C128.234 295.141 127.706 295.205 127.113 295.205ZM138.502 292.922L138.68 289.613L145.98 280.809H149.262L138.502 292.922ZM137.477 295V275.121H140.266V295H137.477ZM146.924 295L141.975 286.811L143.766 284.951L149.959 295H146.924ZM158.107 295.205C156.13 295.205 154.598 294.654 153.514 293.551C152.429 292.448 151.887 290.88 151.887 288.848V287.248C151.887 285.133 152.406 283.497 153.445 282.34C154.493 281.182 155.965 280.604 157.861 280.604C159.648 280.604 161.029 281.26 162.004 282.572C162.988 283.885 163.48 285.726 163.48 288.096V289.025H153.91V286.783H160.828C160.746 285.635 160.445 284.737 159.926 284.09C159.415 283.443 158.727 283.119 157.861 283.119C156.813 283.119 155.997 283.465 155.414 284.158C154.831 284.851 154.539 285.831 154.539 287.098V288.902C154.539 290.078 154.849 290.98 155.469 291.609C156.098 292.238 156.977 292.553 158.107 292.553C158.673 292.553 159.233 292.439 159.789 292.211C160.345 291.983 160.842 291.664 161.279 291.254L163.111 293.086C162.41 293.76 161.621 294.285 160.746 294.658C159.871 295.023 158.992 295.205 158.107 295.205ZM183.045 280.809H185.889L179.846 298.322C179.508 299.298 179.021 299.972 178.383 300.346C177.745 300.729 176.87 300.92 175.758 300.92H175.197V298.24H175.758C176.277 298.24 176.688 298.135 176.988 297.926C177.298 297.716 177.567 297.356 177.795 296.846L183.045 280.809ZM178.984 296.162L173.324 280.809H176.168L180.529 293.141L178.984 296.162ZM193.531 295.205C191.672 295.205 190.232 294.667 189.211 293.592C188.19 292.507 187.68 290.985 187.68 289.025V286.715C187.68 284.773 188.19 283.27 189.211 282.203C190.232 281.137 191.672 280.604 193.531 280.604C195.391 280.604 196.831 281.137 197.852 282.203C198.872 283.27 199.383 284.773 199.383 286.715V289.066C199.383 291.017 198.872 292.53 197.852 293.605C196.831 294.672 195.391 295.205 193.531 295.205ZM193.531 292.553C194.507 292.553 195.258 292.247 195.787 291.637C196.325 291.026 196.594 290.169 196.594 289.066V286.715C196.594 285.612 196.325 284.76 195.787 284.158C195.258 283.557 194.507 283.256 193.531 283.256C192.565 283.256 191.813 283.557 191.275 284.158C190.738 284.76 190.469 285.612 190.469 286.715V289.066C190.469 290.169 190.738 291.026 191.275 291.637C191.813 292.247 192.565 292.553 193.531 292.553ZM211.551 295V280.809H214.326V295H211.551ZM205.781 280.809V289.436C205.781 290.429 206.032 291.199 206.533 291.746C207.044 292.284 207.759 292.553 208.68 292.553C209.6 292.553 210.307 292.311 210.799 291.828C211.3 291.336 211.551 290.648 211.551 289.764L211.742 292.73C211.487 293.368 211.04 293.943 210.402 294.453C209.764 294.954 208.93 295.205 207.9 295.205C206.333 295.205 205.12 294.704 204.264 293.701C203.416 292.689 202.992 291.268 202.992 289.436V280.809H205.781ZM218.578 295V280.809H221.367V295H218.578ZM226.385 284.172C226.139 283.871 225.829 283.643 225.455 283.488C225.081 283.333 224.648 283.256 224.156 283.256C223.272 283.256 222.584 283.502 222.092 283.994C221.609 284.477 221.367 285.152 221.367 286.018L221.08 283.283C221.508 282.445 222.069 281.788 222.762 281.314C223.464 280.84 224.234 280.604 225.072 280.604C225.719 280.604 226.303 280.699 226.822 280.891C227.351 281.073 227.811 281.346 228.203 281.711L226.385 284.172ZM255 295V286.4C255 285.398 254.74 284.623 254.221 284.076C253.71 283.529 252.981 283.256 252.033 283.256C251.167 283.256 250.497 283.52 250.023 284.049C249.549 284.577 249.312 285.325 249.312 286.291L248.752 283.557C249.208 282.609 249.8 281.88 250.529 281.369C251.258 280.859 252.065 280.604 252.949 280.604C254.49 280.604 255.679 281.109 256.518 282.121C257.365 283.124 257.789 284.546 257.789 286.387V295H255ZM238.047 295V280.809H240.836V295H238.047ZM246.523 295V286.4C246.523 285.398 246.277 284.623 245.785 284.076C245.293 283.529 244.596 283.256 243.693 283.256C242.782 283.256 242.076 283.497 241.574 283.98C241.082 284.464 240.836 285.143 240.836 286.018L240.549 283.283C240.986 282.426 241.556 281.766 242.258 281.301C242.969 280.836 243.753 280.604 244.609 280.604C246.104 280.604 247.262 281.109 248.082 282.121C248.902 283.124 249.312 284.546 249.312 286.387V295H246.523ZM267.838 295.205C265.86 295.205 264.329 294.654 263.244 293.551C262.16 292.448 261.617 290.88 261.617 288.848V287.248C261.617 285.133 262.137 283.497 263.176 282.34C264.224 281.182 265.696 280.604 267.592 280.604C269.378 280.604 270.759 281.26 271.734 282.572C272.719 283.885 273.211 285.726 273.211 288.096V289.025H263.641V286.783H270.559C270.477 285.635 270.176 284.737 269.656 284.09C269.146 283.443 268.458 283.119 267.592 283.119C266.544 283.119 265.728 283.465 265.145 284.158C264.561 284.851 264.27 285.831 264.27 287.098V288.902C264.27 290.078 264.579 290.98 265.199 291.609C265.828 292.238 266.708 292.553 267.838 292.553C268.403 292.553 268.964 292.439 269.52 292.211C270.076 291.983 270.572 291.664 271.01 291.254L272.842 293.086C272.14 293.76 271.352 294.285 270.477 294.658C269.602 295.023 268.722 295.205 267.838 295.205ZM285.105 295V275.121H287.895V295H285.105ZM281.537 295.246C279.969 295.246 278.757 294.745 277.9 293.742C277.053 292.73 276.629 291.309 276.629 289.477V286.346C276.629 284.505 277.044 283.083 277.873 282.08C278.712 281.068 279.887 280.562 281.4 280.562C282.239 280.562 283.005 280.781 283.697 281.219C284.399 281.656 284.964 282.271 285.393 283.064L285.105 285.963C285.105 285.361 284.996 284.846 284.777 284.418C284.559 283.99 284.24 283.666 283.82 283.447C283.41 283.219 282.909 283.105 282.316 283.105C281.396 283.105 280.68 283.393 280.17 283.967C279.669 284.541 279.418 285.348 279.418 286.387V289.477C279.418 290.507 279.669 291.304 280.17 291.869C280.68 292.425 281.396 292.703 282.316 292.703C282.909 292.703 283.41 292.589 283.82 292.361C284.24 292.124 284.559 291.787 284.777 291.35C284.996 290.912 285.105 290.388 285.105 289.777L285.297 292.771C285.042 293.41 284.6 293.984 283.971 294.494C283.351 294.995 282.54 295.246 281.537 295.246ZM292.133 277.91V275.121H294.922V277.91H292.133ZM292.133 295V280.809H294.922V295H292.133ZM304.889 295.205C302.938 295.205 301.425 294.667 300.35 293.592C299.283 292.516 298.75 290.999 298.75 289.039V286.701C298.75 284.76 299.283 283.26 300.35 282.203C301.425 281.137 302.938 280.604 304.889 280.604C306.001 280.604 307.003 280.799 307.896 281.191C308.79 281.583 309.501 282.144 310.029 282.873L308.02 284.678C307.628 284.222 307.163 283.871 306.625 283.625C306.087 283.379 305.522 283.256 304.93 283.256C303.854 283.256 303.02 283.557 302.428 284.158C301.835 284.76 301.539 285.607 301.539 286.701V289.039C301.539 290.16 301.835 291.026 302.428 291.637C303.02 292.247 303.854 292.553 304.93 292.553C305.522 292.553 306.087 292.421 306.625 292.156C307.163 291.892 307.628 291.518 308.02 291.035L310.029 292.977C309.501 293.688 308.785 294.239 307.883 294.631C306.99 295.014 305.992 295.205 304.889 295.205ZM313.105 277.91V275.121H315.895V277.91H313.105ZM313.105 295V280.809H315.895V295H313.105ZM320.133 295V280.809H322.922V295H320.133ZM328.746 295V286.4C328.746 285.398 328.486 284.623 327.967 284.076C327.456 283.529 326.727 283.256 325.779 283.256C324.868 283.256 324.161 283.497 323.66 283.98C323.168 284.464 322.922 285.143 322.922 286.018L322.635 283.283C323.072 282.426 323.642 281.766 324.344 281.301C325.055 280.836 325.839 280.604 326.695 280.604C328.236 280.604 329.425 281.109 330.264 282.121C331.111 283.124 331.535 284.546 331.535 286.387V295H328.746ZM341.584 295.205C339.606 295.205 338.075 294.654 336.99 293.551C335.906 292.448 335.363 290.88 335.363 288.848V287.248C335.363 285.133 335.883 283.497 336.922 282.34C337.97 281.182 339.442 280.604 341.338 280.604C343.124 280.604 344.505 281.26 345.48 282.572C346.465 283.885 346.957 285.726 346.957 288.096V289.025H337.387V286.783H344.305C344.223 285.635 343.922 284.737 343.402 284.09C342.892 283.443 342.204 283.119 341.338 283.119C340.29 283.119 339.474 283.465 338.891 284.158C338.307 284.851 338.016 285.831 338.016 287.098V288.902C338.016 290.078 338.326 290.98 338.945 291.609C339.574 292.238 340.454 292.553 341.584 292.553C342.149 292.553 342.71 292.439 343.266 292.211C343.822 291.983 344.318 291.664 344.756 291.254L346.588 293.086C345.886 293.76 345.098 294.285 344.223 294.658C343.348 295.023 342.468 295.205 341.584 295.205ZM363.746 295.205C361.887 295.205 360.447 294.667 359.426 293.592C358.405 292.507 357.895 290.985 357.895 289.025V286.715C357.895 284.773 358.405 283.27 359.426 282.203C360.447 281.137 361.887 280.604 363.746 280.604C365.605 280.604 367.046 281.137 368.066 282.203C369.087 283.27 369.598 284.773 369.598 286.715V289.066C369.598 291.017 369.087 292.53 368.066 293.605C367.046 294.672 365.605 295.205 363.746 295.205ZM363.746 292.553C364.721 292.553 365.473 292.247 366.002 291.637C366.54 291.026 366.809 290.169 366.809 289.066V286.715C366.809 285.612 366.54 284.76 366.002 284.158C365.473 283.557 364.721 283.256 363.746 283.256C362.78 283.256 362.028 283.557 361.49 284.158C360.952 284.76 360.684 285.612 360.684 286.715V289.066C360.684 290.169 360.952 291.026 361.49 291.637C362.028 292.247 362.78 292.553 363.746 292.553ZM373.562 295V280.809H376.352V295H373.562ZM382.176 295V286.4C382.176 285.398 381.916 284.623 381.396 284.076C380.886 283.529 380.157 283.256 379.209 283.256C378.298 283.256 377.591 283.497 377.09 283.98C376.598 284.464 376.352 285.143 376.352 286.018L376.064 283.283C376.502 282.426 377.072 281.766 377.773 281.301C378.484 280.836 379.268 280.604 380.125 280.604C381.665 280.604 382.855 281.109 383.693 282.121C384.541 283.124 384.965 284.546 384.965 286.387V295H382.176ZM400.414 295.068C399.247 295.068 398.4 294.745 397.871 294.098C397.352 293.451 397.092 292.521 397.092 291.309V276.68H399.881V291.336C399.881 291.673 399.949 291.938 400.086 292.129C400.223 292.32 400.423 292.416 400.688 292.416H402.027V295.068H400.414ZM395.629 283.324V280.809H402.027V283.324H395.629ZM405.855 277.91V275.121H408.645V277.91H405.855ZM405.855 295V280.809H408.645V295H405.855ZM429.836 295V286.4C429.836 285.398 429.576 284.623 429.057 284.076C428.546 283.529 427.817 283.256 426.869 283.256C426.003 283.256 425.333 283.52 424.859 284.049C424.385 284.577 424.148 285.325 424.148 286.291L423.588 283.557C424.044 282.609 424.636 281.88 425.365 281.369C426.094 280.859 426.901 280.604 427.785 280.604C429.326 280.604 430.515 281.109 431.354 282.121C432.201 283.124 432.625 284.546 432.625 286.387V295H429.836ZM412.883 295V280.809H415.672V295H412.883ZM421.359 295V286.4C421.359 285.398 421.113 284.623 420.621 284.076C420.129 283.529 419.432 283.256 418.529 283.256C417.618 283.256 416.911 283.497 416.41 283.98C415.918 284.464 415.672 285.143 415.672 286.018L415.385 283.283C415.822 282.426 416.392 281.766 417.094 281.301C417.805 280.836 418.589 280.604 419.445 280.604C420.94 280.604 422.098 281.109 422.918 282.121C423.738 283.124 424.148 284.546 424.148 286.387V295H421.359ZM442.674 295.205C440.696 295.205 439.165 294.654 438.08 293.551C436.995 292.448 436.453 290.88 436.453 288.848V287.248C436.453 285.133 436.973 283.497 438.012 282.34C439.06 281.182 440.532 280.604 442.428 280.604C444.214 280.604 445.595 281.26 446.57 282.572C447.555 283.885 448.047 285.726 448.047 288.096V289.025H438.477V286.783H445.395C445.312 285.635 445.012 284.737 444.492 284.09C443.982 283.443 443.294 283.119 442.428 283.119C441.38 283.119 440.564 283.465 439.98 284.158C439.397 284.851 439.105 285.831 439.105 287.098V288.902C439.105 290.078 439.415 290.98 440.035 291.609C440.664 292.238 441.544 292.553 442.674 292.553C443.239 292.553 443.799 292.439 444.355 292.211C444.911 291.983 445.408 291.664 445.846 291.254L447.678 293.086C446.976 293.76 446.188 294.285 445.312 294.658C444.438 295.023 443.558 295.205 442.674 295.205ZM450.85 295V292.074H453.775V295H450.85Z" fill="black"/>
<path d="M204.812 323V300.281H208V323H204.812ZM206.359 323V319.969H219.406V323H206.359ZM206.359 313.234V310.203H217.688V313.234H206.359ZM206.359 303.312V300.281H219.406V303.312H206.359ZM229.203 318.359L233.172 306.781H236.5L230.406 323H228L221.906 306.781H225.234L229.203 318.359ZM245.953 323.234C243.693 323.234 241.943 322.604 240.703 321.344C239.464 320.083 238.844 318.292 238.844 315.969V314.141C238.844 311.724 239.438 309.854 240.625 308.531C241.823 307.208 243.505 306.547 245.672 306.547C247.714 306.547 249.292 307.297 250.406 308.797C251.531 310.297 252.094 312.401 252.094 315.109V316.172H241.156V313.609H249.062C248.969 312.297 248.625 311.271 248.031 310.531C247.448 309.792 246.661 309.422 245.672 309.422C244.474 309.422 243.542 309.818 242.875 310.609C242.208 311.401 241.875 312.521 241.875 313.969V316.031C241.875 317.375 242.229 318.406 242.938 319.125C243.656 319.844 244.661 320.203 245.953 320.203C246.599 320.203 247.24 320.073 247.875 319.812C248.51 319.552 249.078 319.188 249.578 318.719L251.672 320.812C250.87 321.583 249.969 322.182 248.969 322.609C247.969 323.026 246.964 323.234 245.953 323.234ZM256.469 323V306.781H259.656V323H256.469ZM265.391 310.625C265.109 310.281 264.755 310.021 264.328 309.844C263.901 309.667 263.406 309.578 262.844 309.578C261.833 309.578 261.047 309.859 260.484 310.422C259.932 310.974 259.656 311.745 259.656 312.734L259.328 309.609C259.818 308.651 260.458 307.901 261.25 307.359C262.052 306.818 262.932 306.547 263.891 306.547C264.63 306.547 265.297 306.656 265.891 306.875C266.495 307.083 267.021 307.396 267.469 307.812L265.391 310.625ZM279.516 306.781H282.766L275.859 326.797C275.474 327.911 274.917 328.682 274.188 329.109C273.458 329.547 272.458 329.766 271.188 329.766H270.547V326.703H271.188C271.781 326.703 272.25 326.583 272.594 326.344C272.948 326.104 273.255 325.693 273.516 325.109L279.516 306.781ZM274.875 324.328L268.406 306.781H271.656L276.641 320.875L274.875 324.328ZM298.406 323.078C297.073 323.078 296.104 322.708 295.5 321.969C294.906 321.229 294.609 320.167 294.609 318.781V302.062H297.797V318.812C297.797 319.198 297.875 319.5 298.031 319.719C298.188 319.938 298.417 320.047 298.719 320.047H300.25V323.078H298.406ZM292.938 309.656V306.781H300.25V309.656H292.938ZM304.625 303.469V300.281H307.812V303.469H304.625ZM304.625 323V306.781H307.812V323H304.625ZM332.031 323V313.172C332.031 312.026 331.734 311.141 331.141 310.516C330.557 309.891 329.724 309.578 328.641 309.578C327.651 309.578 326.885 309.88 326.344 310.484C325.802 311.089 325.531 311.943 325.531 313.047L324.891 309.922C325.411 308.839 326.089 308.005 326.922 307.422C327.755 306.839 328.677 306.547 329.688 306.547C331.448 306.547 332.807 307.125 333.766 308.281C334.734 309.427 335.219 311.052 335.219 313.156V323H332.031ZM312.656 323V306.781H315.844V323H312.656ZM322.344 323V313.172C322.344 312.026 322.062 311.141 321.5 310.516C320.938 309.891 320.141 309.578 319.109 309.578C318.068 309.578 317.26 309.854 316.688 310.406C316.125 310.958 315.844 311.734 315.844 312.734L315.516 309.609C316.016 308.63 316.667 307.875 317.469 307.344C318.281 306.812 319.177 306.547 320.156 306.547C321.865 306.547 323.188 307.125 324.125 308.281C325.062 309.427 325.531 311.052 325.531 313.156V323H322.344ZM346.703 323.234C344.443 323.234 342.693 322.604 341.453 321.344C340.214 320.083 339.594 318.292 339.594 315.969V314.141C339.594 311.724 340.188 309.854 341.375 308.531C342.573 307.208 344.255 306.547 346.422 306.547C348.464 306.547 350.042 307.297 351.156 308.797C352.281 310.297 352.844 312.401 352.844 315.109V316.172H341.906V313.609H349.812C349.719 312.297 349.375 311.271 348.781 310.531C348.198 309.792 347.411 309.422 346.422 309.422C345.224 309.422 344.292 309.818 343.625 310.609C342.958 311.401 342.625 312.521 342.625 313.969V316.031C342.625 317.375 342.979 318.406 343.688 319.125C344.406 319.844 345.411 320.203 346.703 320.203C347.349 320.203 347.99 320.073 348.625 319.812C349.26 319.552 349.828 319.188 350.328 318.719L352.422 320.812C351.62 321.583 350.719 322.182 349.719 322.609C348.719 323.026 347.714 323.234 346.703 323.234ZM356.047 323V319.656H359.391V323H356.047Z" fill="black"/>
</svg>
